<svg xmlns="http://www.w3.org/2000/svg" viewBox="0 0 100 100"><switch><g><circle cx="50" cy="50" r="45" fill="#2aa9e0"/><path d="M80.2 31.7s-3.9 1.7-7.1 1.9v-.3-.3c3.9-1 5.6-6.5 5.4-6.6-1.7 1.5-7.1 3.3-7.9 3.3-2.3-2.4-5.5-3.9-9-3.9-6.9 0-12.5 5.6-12.5 12.5 0 .9.2 2.1.2 2.7-15.3-.1-25.4-12.9-25.4-12.9-5.4 10.7 3.8 16.5 3.8 16.5-1.8.3-5.6-1.5-5.6-1.5-.1 9.3 9.2 12.7 9.9 12.4h-.1c-2.8.8-5.4.2-5.4.2 3.2 8.8 11.5 8.6 11.5 8.6s-6.8 6.4-18.2 5.2C44.3 84.7 75.5 66.8 74 38.3v-.2c.6-.3 4.3-3.3 6.2-6.4zM32 55.4l.1-.1-.1.1z" fill="#fff"/></g></switch></svg>